<?xml version="1.0" encoding="UTF-8" standalone="no"?>
<!-- Created with Inkscape (http://www.inkscape.org/) -->

<svg
   width="247.15588mm"
   height="139.22765mm"
   viewBox="0 0 875.74914 493.3261"
   id="svg9824"
   version="1.1"
   sodipodi:docname="rikitrakilogo.svg"
   inkscape:version="1.4 (e7c3feb1, 2024-10-09)"
   xmlns:inkscape="http://www.inkscape.org/namespaces/inkscape"
   xmlns:sodipodi="http://sodipodi.sourceforge.net/DTD/sodipodi-0.dtd"
   xmlns="http://www.w3.org/2000/svg"
   xmlns:svg="http://www.w3.org/2000/svg"
   xmlns:rdf="http://www.w3.org/1999/02/22-rdf-syntax-ns#"
   xmlns:cc="http://creativecommons.org/ns#"
   xmlns:dc="http://purl.org/dc/elements/1.1/">
  <sodipodi:namedview
     id="namedview1"
     pagecolor="#000000"
     bordercolor="#666666"
     borderopacity="1.0"
     inkscape:showpageshadow="2"
     inkscape:pageopacity="0.0"
     inkscape:pagecheckerboard="0"
     inkscape:deskcolor="#d1d1d1"
     inkscape:document-units="mm"
     inkscape:zoom="1.1304606"
     inkscape:cx="467.06624"
     inkscape:cy="263.16706"
     inkscape:window-width="1200"
     inkscape:window-height="1158"
     inkscape:window-x="0"
     inkscape:window-y="25"
     inkscape:window-maximized="0"
     inkscape:current-layer="svg9824" />
  <defs
     id="defs9826">
    <linearGradient
       id="linearGradient10506"
       gradientTransform="translate(2.8571429,20)">
      <stop
         style="stop-color:#000000;stop-opacity:1;"
         offset="0"
         id="stop10508" />
    </linearGradient>
  </defs>
  <metadata
     id="metadata9829">
    <rdf:RDF>
      <cc:Work
         rdf:about="">
        <dc:format>image/svg+xml</dc:format>
        <dc:type
           rdf:resource="http://purl.org/dc/dcmitype/StillImage" />
      </cc:Work>
    </rdf:RDF>
  </metadata>
  <g
     id="layer1"
     transform="translate(-14.907294,-5.2062955)">
    <path
       style="opacity:0.93;fill:#554400;fill-opacity:0.933333;stroke:#000000;stroke-width:2;stroke-linejoin:round;stroke-miterlimit:4;stroke-dasharray:none;stroke-opacity:1"
       d=""
       id="path10462" />
    <path
       style="fill:none;fill-opacity:1;fill-rule:evenodd;stroke:#ffffff;stroke-width:12;stroke-linecap:round;stroke-linejoin:round;stroke-miterlimit:4;stroke-dasharray:none;stroke-opacity:1"
       d="m 313.48214,142.00506 c -37.7927,19.20749 -78.3354,40.71081 -97.70996,80.63109 -22.39416,39.78223 -27.37086,93.49568 0.73319,131.76855 29.51091,46.29067 89.45275,61.95055 141.47647,56.61992 37.85332,-6.1106 71.6812,-26.3019 105.08718,-44.08772 57.51859,-31.62116 108.43978,-75.28607 160.59405,-114.45778 28.54868,-20.06194 58.70259,-33.66217 89.17562,-50.40417 17.55802,-12.36968 53.31835,-18.64292 60.21402,-28.25019 -28.17359,-11.30079 -57.60906,5.40559 -86.75964,-7.15223 C 655.4037,162.01875 638.91843,134.29016 631.4409,106.72814 621.9029,81.44798 616.35399,54.13038 602.10138,30.96224 576.56907,3.546342 535.18202,15.73966 502.01524,11.61323 448.96914,10.77277 390.71029,8.7410704 344.48614,38.72464 c -25.41541,22.94733 -25.07982,59.82245 -26.54567,91.33108 -0.70898,4.20987 -2.057,8.38075 -4.45833,11.94934 z"
       id="path13316" />
    <path
       style="fill:none;fill-rule:evenodd;stroke:#ffffff;stroke-width:12;stroke-linecap:round;stroke-linejoin:round;stroke-miterlimit:4;stroke-dasharray:none;stroke-opacity:1"
       d="m 316.33929,139.14792 c -8.85526,34.57785 -14.09788,70.24323 -14.52244,105.79509 4.16832,30.85043 36.80437,44.32444 64.37245,45.98488 71.0288,8.54614 138.83854,-22.35745 201.12689,-52.62638 28.63902,-14.55499 59.47973,-29.69319 75.60125,-59.07923 17.74803,-10.90388 6.42065,-52.63649 -9.70042,-25.16237 -15.09727,27.57642 -40.0605,46.40241 -68.45531,58.78738 -44.03599,21.06902 -90.87436,38.1356 -139.2141,45.52302 -36.53813,3.40246 -74.01051,-1.76636 -107.89019,-16.02503 -4.92335,-3.97313 -9.91888,-7.8554 -14.88956,-11.76879"
       id="path13318" />
    <path
       style="fill:none;fill-rule:evenodd;stroke:#ffffff;stroke-width:12;stroke-linecap:round;stroke-linejoin:round;stroke-miterlimit:4;stroke-dasharray:none;stroke-opacity:1"
       d="M 574.91072,14.14792 C 557.91974,41.70115 521.04793,29.01283 495.29909,39.64112 447.28172,52.21857 401.85433,72.66643 355.41959,89.68127 338.95407,94.21329 329.05114,77.34661 339.91041,64.86182"
       id="path13320" />
    <text
       transform="scale(0.94425879,1.0590317)"
       id="text1"><tspan
         id="tspan10492"
         x="-2.0445929"
         y="467.92813"
         style="font-style:normal;font-variant:normal;font-weight:bold;font-stretch:normal;font-size:192.209px;line-height:120%;font-family:'Arial Hebrew';-inkscape-font-specification:'Arial Hebrew, Bold';font-variant-ligatures:normal;font-variant-caps:normal;font-variant-numeric:normal;font-variant-east-asian:normal;text-align:start;writing-mode:lr-tb;text-anchor:start;fill:#ffffff;fill-opacity:1;stroke:none;stroke-width:0.791041px;stroke-opacity:1">RikiTraki</tspan></text>
    <rect
       style="opacity:1;fill:none;fill-opacity:1;stroke:none;stroke-width:12;stroke-linecap:round;stroke-linejoin:round;stroke-miterlimit:4;stroke-dasharray:none;stroke-opacity:1"
       id="rect13419"
       width="865.71429"
       height="108.57143"
       x="45.714287"
       y="2.0764835" />
    <rect
       style="opacity:1;fill:none;fill-opacity:1;stroke:none;stroke-width:12;stroke-linecap:round;stroke-linejoin:round;stroke-miterlimit:4;stroke-dasharray:none;stroke-opacity:1"
       id="rect13421"
       width="38.57143"
       height="597.14288"
       x="-34.285717"
       y="8.0764866" />
  </g>
</svg>
